<svg width="46" height="36" viewBox="0 0 46 36" fill="none" xmlns="http://www.w3.org/2000/svg">
<path d="M19.4924 7.49995C19.7787 7.49919 20.0616 7.54865 20.3204 7.64469C20.5791 7.74074 20.807 7.88092 20.9874 8.05496L30.2449 17.055C30.5268 17.3234 30.6809 17.66 30.6809 18.0075C30.6809 18.3549 30.5268 18.6916 30.2449 18.96L20.6616 27.96C20.3362 28.2663 19.8687 28.4589 19.3619 28.4955C18.8551 28.5321 18.3505 28.4096 17.9591 28.155C17.5676 27.9003 17.3215 27.5345 17.2748 27.1378C17.228 26.7412 17.3846 26.3463 17.7099 26.04L26.2774 18L17.9974 9.95995C17.763 9.73978 17.6141 9.47167 17.5684 9.18734C17.5226 8.90302 17.5819 8.61438 17.7391 8.35559C17.8964 8.0968 18.1451 7.87868 18.4558 7.72705C18.7665 7.57541 19.1262 7.49661 19.4924 7.49995Z" fill="white"/>
</svg>
