<svg width="46" height="36" viewBox="0 0 46 36" fill="none" xmlns="http://www.w3.org/2000/svg">
<path d="M26.5076 28.5C26.2213 28.5008 25.9384 28.4513 25.6796 28.3553C25.4209 28.2593 25.193 28.1191 25.0126 27.945L15.7551 18.945C15.4732 18.6766 15.3191 18.34 15.3191 17.9925C15.3191 17.6451 15.4732 17.3084 15.7551 17.04L25.3384 8.04005C25.6638 7.73372 26.1313 7.54109 26.6381 7.50452C27.1449 7.46795 27.6495 7.59044 28.0409 7.84505C28.4324 8.09966 28.6785 8.46552 28.7252 8.86216C28.772 9.2588 28.6154 9.65372 28.2901 9.96005L19.7226 18L28.0026 26.04C28.237 26.2602 28.3859 26.5283 28.4316 26.8127C28.4774 27.097 28.4181 27.3856 28.2609 27.6444C28.1036 27.9032 27.8549 28.1213 27.5442 28.273C27.2335 28.4246 26.8738 28.5034 26.5076 28.5Z" fill="white"/>
</svg>
